<?xml version="1.0" encoding="UTF-8"?>
<svg viewBox="0 0 560 196" xmlns="http://www.w3.org/2000/svg" role="img" aria-labelledby="dependencies-title dependencies-desc">
<title id="dependencies-title">ze-communication dependencies</title>
<desc id="dependencies-desc">core/ze-communication defines the channel contract (types, ABCs, registry), depending on ze-agents.</desc>
<defs>
<marker id="arrow" markerWidth="8" markerHeight="6" refX="7" refY="3" orient="auto"><polygon points="0 0, 8 3, 0 6" fill="#6b6b6b"/></marker>
<marker id="arrow-accent" markerWidth="8" markerHeight="6" refX="7" refY="3" orient="auto"><polygon points="0 0, 8 3, 0 6" fill="#8052ff"/></marker>
</defs>
<rect width="100%" height="100%" fill="#f7f6f4"/>
<path d="M 200,80.0 H 340" fill="none" stroke="#8052ff" stroke-width="1.2" marker-end="url(#arrow-accent)"/>

      <rect x="48" y="40.0" width="32" height="12" rx="2" fill="#f7f6f4"/>
      <rect x="48" y="40.0" width="32" height="12" rx="2" fill="transparent" stroke="#8052ff" stroke-opacity="0.4" stroke-width="0.8"/>
      <text x="64" y="49.0" fill="#8052ff" fill-opacity="0.8" font-size="7" font-family="'Geist Mono', monospace" text-anchor="middle" letter-spacing="0.08em">CORE</text>
      <rect x="40" y="60.0" width="160" height="40" rx="6" fill="#f7f6f4"/>
      <rect x="40" y="60.0" width="160" height="40" rx="6" fill="rgba(128,82,255,0.08)" stroke="#8052ff" stroke-width="1.2"/>
      <text x="120.0" y="84.0" fill="#0a0a0a" font-size="12" font-weight="600" font-family="'Inter', sans-serif" text-anchor="middle">ze-communication</text>
    

      <rect x="348" y="40" width="32" height="12" rx="2" fill="#f7f6f4"/>
      <rect x="348" y="40" width="32" height="12" rx="2" fill="transparent" stroke="#0a0a0a" stroke-opacity="0.4" stroke-width="0.8"/>
      <text x="364" y="49" fill="#0a0a0a" fill-opacity="0.8" font-size="7" font-family="'Geist Mono', monospace" text-anchor="middle" letter-spacing="0.08em">CORE</text>
      <rect x="340" y="60" width="168" height="40" rx="6" fill="#f7f6f4"/>
      <rect x="340" y="60" width="168" height="40" rx="6" fill="#ffffff" stroke="#0a0a0a" stroke-width="1"/>
      <text x="424.0" y="84.0" fill="#0a0a0a" font-size="12" font-weight="600" font-family="'Inter', sans-serif" text-anchor="middle">ze-agents</text>
    
<line x1="30" y1="148" x2="530" y2="148" stroke="rgba(10,10,10,0.12)" stroke-width="0.8"/>
<text x="30" y="164" fill="#6b6b6b" font-size="8" font-family="'Geist Mono', monospace" letter-spacing="0.14em">LEGEND</text>
<rect x="120" y="156" width="12" height="12" rx="2" fill="rgba(128,82,255,0.08)" stroke="#8052ff" stroke-width="1"/>
<text x="138" y="166" fill="#6b6b6b" font-size="9" font-family="'Inter', sans-serif">This package</text>
<rect x="280" y="156" width="12" height="12" rx="2" fill="#ffffff" stroke="#0a0a0a" stroke-width="1"/>
<text x="298" y="166" fill="#6b6b6b" font-size="9" font-family="'Inter', sans-serif">Dependency</text>
</svg>
